<svg width="384" height="384" viewBox="0 0 384 384" fill="none" xmlns="http://www.w3.org/2000/svg">
<path d="M192 1.5C217.017 1.5 241.789 6.42743 264.901 16.001C288.014 25.5745 309.014 39.6066 326.704 57.2962C344.393 74.9857 358.426 95.9863 367.999 119.099C377.573 142.211 382.5 166.983 382.5 192C382.5 217.017 377.573 241.789 367.999 264.901C358.426 288.014 344.393 309.014 326.704 326.704C309.014 344.393 288.014 358.426 264.901 367.999C241.789 377.573 217.017 382.5 192 382.5C166.983 382.5 142.211 377.573 119.099 367.999C95.9862 358.425 74.9857 344.393 57.2961 326.704C39.6065 309.014 25.5744 288.014 16.0009 264.901C6.4274 241.789 1.49999 217.017 1.5 192C1.50001 166.983 6.42745 142.211 16.001 119.099C25.5745 95.9862 39.6067 74.9856 57.2962 57.2961C74.9858 39.6065 95.9864 25.5744 119.099 16.0009C142.211 6.4274 166.983 1.49998 192 1.5L192 1.5Z" stroke="#C1C2C3" stroke-width="3"/>
<path d="M192 1.5C241.488 1.5 289.033 20.7579 324.571 55.197C360.11 89.636 380.852 136.553 382.406 186.016C383.96 235.479 366.205 283.606 332.9 320.209C299.594 356.811 253.352 379.017 203.962 382.124C154.572 385.231 105.911 368.997 68.2801 336.857C30.6494 304.718 7.00261 259.196 2.34544 209.928C-2.31174 160.66 12.3863 111.513 43.3281 72.8912C74.2699 34.2696 119.027 9.20455 168.124 3.00213" stroke="#1A1B1C" stroke-width="3"/>
</svg>
